/vscmnt/brussel_pixiu_data/_data_brussel/112/vsc11236/PredSimResults/SUBJ04opt3D/weighted-expIG/worker_05.mot
version=1
nRows=11
nColumns=50
inDegrees=yes
endheader
                time	         pelvis_tilt	         pelvis_list	     pelvis_rotation	           pelvis_tx	           pelvis_ty	           pelvis_tz	       hip_flexion_r	     hip_adduction_r	      hip_rotation_r	        knee_angle_r	       ankle_angle_r	         mtp_angle_r	       hip_flexion_l	     hip_adduction_l	      hip_rotation_l	        knee_angle_l	       ankle_angle_l	         mtp_angle_l	    lumbar_extension	      lumbar_bending	     lumbar_rotation	 ercspn_r/activation	 intobl_r/activation	 extobl_r/activation	    abd_r/activation	    add_r/activation	hamstrings_r/activation	bifemsh_r/activation	glut_max_r/activation	iliopsoas_r/activation	rect_fem_r/activation	  vasti_r/activation	gastroc_r/activation	 soleus_r/activation	tib_ant_r/activation	 ercspn_l/activation	 intobl_l/activation	 extobl_l/activation	    abd_l/activation	    add_l/activation	hamstrings_l/activation	bifemsh_l/activation	glut_max_l/activation	iliopsoas_l/activation	rect_fem_l/activation	  vasti_l/activation	gastroc_l/activation	 soleus_l/activation	tib_ant_l/activation	
          1.99653677	         -1.21052964	         -0.37639163	         -6.80144303	          1.71702162	          0.88541899	          0.00893268	        -11.92036450	          0.19773242	         -5.84870231	         -6.25583714	         14.49687300	         16.65885569	         27.43591164	         -2.23065539	         -6.21317229	         -9.38897535	          3.96837729	          0.23517595	        -14.24354157	          4.49615457	          8.16785857	          0.00999999	          0.00999999	          0.00999999	          0.09060397	          0.00999999	          0.03049079	          0.35075633	          0.01957076	          0.01883735	          0.00999999	          0.00999999	          0.28556770	          0.24576126	          0.01492885	          0.05713725	          0.24363620	          0.02229865	          0.00999999	          0.26473528	          0.06274454	          0.03537125	          0.01214047	          0.18625795	          0.03748841	          0.04955386	          0.00999999	          0.00999999	          0.34258646	
          2.00984702	         -1.31528339	         -0.37786771	         -6.55622966	          1.73170227	          0.88299920	          0.00844509	        -12.60040177	          0.13606585	         -6.48881219	         -6.72469791	         14.49865196	         17.95304837	         27.58121963	         -1.99768461	         -6.12821984	        -10.93759957	          3.82162438	          0.23259293	        -13.75627896	          3.85626438	          8.30550000	          0.02983238	          0.00999999	          0.00999999	          0.07415387	          0.00999999	          0.02495487	          0.34453720	          0.01601748	          0.01824063	          0.01000002	          0.00999999	          0.28631537	          0.25916674	          0.01221836	          0.04676338	          0.22481767	          0.01825010	          0.00999999	          0.35985350	          0.06813065	          0.02894924	          0.00999999	          0.15244086	          0.03068200	          0.04055684	          0.01492885	          0.01824064	          0.33077616	
          2.02315726	         -1.40466839	         -0.32193516	         -6.27780277	          1.74684341	          0.88066412	          0.00793402	        -13.24071299	          0.01359667	         -7.17022472	         -7.34697348	         14.43332614	         19.34162493	         27.62475562	         -1.76126141	         -5.92423309	        -12.56470299	          3.66180187	          0.22439346	        -13.22314176	          3.12458852	          8.41812179	          0.02441600	          0.00999999	          0.00999999	          0.06069045	          0.00999999	          0.04437274	          0.31548132	          0.01345122	          0.01492885	          0.00999999	          0.00999999	          0.27640877	          0.26595639	          0.00999999	          0.03827300	          0.22637332	          0.01493660	          0.00999999	          0.29451831	          0.07821974	          0.02369320	          0.01510207	          0.12476362	          0.02511136	          0.03319332	          0.01221836	          0.01492886	          0.34910235	
          2.03646751	         -1.48029965	         -0.19360700	         -5.95964935	          1.76226970	          0.87856092	          0.00733907	        -13.78520244	         -0.19267772	         -7.90097546	         -8.19637445	         14.27900061	         20.82608191	         27.59317351	         -1.47212940	         -5.80545026	        -14.04391707	          3.30130105	          0.21366841	        -12.66723787	          2.29188636	          8.49601012	          0.02115386	          0.00999999	          0.00999999	          0.04967146	          0.00999999	          0.04893635	          0.26434990	          0.01169345	          0.01221836	          0.00999999	          0.00999999	          0.24571609	          0.26384477	          0.00999999	          0.03132413	          0.18527287	          0.01222470	          0.00999999	          0.24104545	          0.09048318	          0.01939145	          0.01236013	          0.10211147	          0.02055213	          0.09584451	          0.00999999	          0.01221837	          0.37275463	
          2.04977775	         -1.54222750	         -0.00019384	         -5.60494981	          1.77787688	          0.87684253	          0.00664529	        -14.19757629	         -0.48339778	         -8.68143121	         -9.32308696	         13.99814823	         22.39639698	         27.48215933	         -1.13444812	         -5.84408375	        -15.38755169	          2.90715125	          0.19502138	        -12.10668010	          1.37240321	          8.53532715	          0.03277855	          0.00999999	          0.00999999	          0.04065309	          0.00999999	          0.05998638	          0.21635440	          0.01537810	          0.00999999	          0.00999999	          0.00999999	          0.20110375	          0.25281142	          0.00999999	          0.02563691	          0.15163463	          0.01000518	          0.01723804	          0.20300082	          0.09298131	          0.01587073	          0.01221834	          0.08357206	          0.01682067	          0.17792676	          0.00999999	          0.00999999	          0.39610434	
          2.06308800	         -1.59017699	          0.24947780	         -5.22193249	          1.79360650	          0.87566695	          0.00584778	        -14.45013594	         -0.85994696	         -9.51015898	        -10.76312780	         13.53439701	         24.04714000	         27.23584236	         -0.75705532	         -6.04089692	        -16.54538658	          2.67134374	          0.17245738	        -11.55181911	          0.38473815	          8.53501717	          0.05787977	          0.00999999	          0.00999999	          0.03327209	          0.00999999	          0.06549570	          0.17707298	          0.01950441	          0.00999999	          0.00999999	          0.00999999	          0.16459125	          0.22729881	          0.00999999	          0.02098226	          0.12410377	          0.00999999	          0.04460803	          0.18421626	          0.09245008	          0.01298923	          0.01000000	          0.06839868	          0.01376670	          0.23582667	          0.00999999	          0.00999999	          0.40321055	
          2.07639824	         -1.62506750	          0.54130058	         -4.81981412	          1.80933452	          0.87519635	          0.00494139	        -14.49942136	         -1.32195365	        -10.38080204	        -12.56889384	         12.82513610	         25.77456565	         26.83414960	         -0.34603991	         -6.34932193	        -17.49225179	          2.65842911	          0.15307630	        -11.01816304	         -0.64679892	          8.49868390	          0.07702074	          0.00999999	          0.00999999	          0.02723119	          0.00999999	          0.07589625	          0.14492352	          0.02645768	          0.00999999	          0.00999999	          0.00999999	          0.13470798	          0.18603032	          0.00999999	          0.02312084	          0.10157143	          0.00999999	          0.07009937	          0.16697282	          0.09272404	          0.01063090	          0.01000000	          0.05598018	          0.01126721	          0.25816944	          0.00999999	          0.00999999	          0.39670943	
          2.08970849	         -1.64769803	          0.85572256	         -4.40890834	          1.82492335	          0.87549419	          0.00392932	        -14.30269679	         -1.86536788	        -11.28492394	        -14.79372421	         11.83541928	         27.54989530	         26.29284777	          0.09079333	         -6.69692313	        -18.24404054	          2.86879648	          0.14904351	        -10.52135359	         -1.69444500	          8.43080734	          0.07366477	          0.00999999	          0.00999999	          0.02228708	          0.09287088	          0.10925653	          0.11861114	          0.02242895	          0.00999999	          0.00999999	          0.00999999	          0.11025033	          0.15225456	          0.00999999	          0.02414430	          0.08313007	          0.00999999	          0.08950529	          0.17131224	          0.09417725	          0.01000001	          0.00999999	          0.04581639	          0.00999999	          0.27183460	          0.00999999	          0.00999999	          0.36761003	
          2.10301873	         -1.65899539	          1.16818014	         -4.00182436	          1.84024210	          0.87653481	          0.00282979	        -13.82340409	         -2.48249285	        -12.20074181	        -17.47610205	         10.53399129	         29.33069141	         25.62639500	          0.54365597	         -6.99574446	        -18.80305920	          3.26868132	          0.19893958	        -10.07618255	         -2.72844851	          8.33612002	          0.06501832	          0.00999999	          0.00999999	          0.01824063	          0.16705883	          0.11914192	          0.09707604	          0.01835674	          0.00999999	          0.00999999	          0.00999999	          0.09023323	          0.12461115	          0.00999999	          0.02453046	          0.06803693	          0.00999999	          0.10266440	          0.16954125	          0.09592029	          0.00999999	          0.01000000	          0.03749794	          0.00999999	          0.27484634	          0.00999999	          0.00999999	          0.33193500	
          2.11632898	         -1.65930985	          1.44588535	         -3.60615501	          1.85519767	          0.87822937	          0.00166596	        -13.04857850	         -3.15420248	        -13.10836151	        -20.61297116	          8.90912173	         31.00016266	         24.83655241	          0.98827725	         -7.18864706	        -19.13791995	          3.70929990	          0.32950289	         -9.69324972	         -3.71064392	          8.21447911	          0.05980160	          0.01000000	          0.00999999	          0.01492885	          0.19658275	          0.12892595	          0.07945086	          0.01502388	          0.00999999	          0.00999999	          0.00999999	          0.07385044	          0.10198669	          0.00999999	          0.02569531	          0.05568411	          0.01221836	          0.11068791	          0.17016758	          0.09911789	          0.01000000	          0.00999999	          0.03068980	          0.00999999	          0.26490869	          0.00999999	          0.00999999	          0.29738870	
          2.12963922	         -1.64816061	          1.65578649	         -3.22534417	          1.86974038	          0.88043658	          0.00046089	        -11.98868601	         -3.85645612	        -13.99318214	        -24.16239694	          6.98278533	         32.35861980	         23.93385854	          1.38597698	         -7.27906868	        -19.25570126	          4.13037705	          0.54618251	         -9.37735807	         -4.60219914	          8.06162522	          0.05213563	          0.00999999	          0.00999999	          0.01221836	          0.21012318	          0.11070354	          0.07603256	          0.01229614	          0.00999999	          0.00999999	          0.00999999	          0.06044211	          0.08346993	          0.00999999	          0.02650696	          0.04557408	          0.01000000	          0.11629829	          0.15908576	          0.10009354	          0.00999999	          0.01348034	          0.02511774	          0.00999999	          0.25165807	          0.00999999	          0.00999999	          0.26515881	
